WARNING: convergence for p not reached after 100 iterations
  res: 2317.89 sum: -802412 nrelax: 100
WARNING: convergence for p not reached after 100 iterations
  res: 2318.97 sum: -844904 nrelax: 100
WARNING: convergence for p not reached after 100 iterations
  res: 2329.57 sum: -806322 nrelax: 100
WARNING: convergence for p not reached after 100 iterations
  res: 2397.18 sum: -806640 nrelax: 100
WARNING: convergence for p not reached after 100 iterations
  res: 2282.81 sum: -817458 nrelax: 100
WARNING: convergence for p not reached after 100 iterations
  res: 2385.44 sum: -829788 nrelax: 100
WARNING: convergence for p not reached after 100 iterations
  res: 2420.08 sum: -808208 nrelax: 100
WARNING: convergence for p not reached after 100 iterations
  res: 2415.87 sum: -835212 nrelax: 100
WARNING: convergence for p not reached after 100 iterations
  res: 2309.57 sum: -810155 nrelax: 100
WARNING: convergence for p not reached after 100 iterations
  res: 2358.4 sum: -839182 nrelax: 100
WARNING: convergence for p not reached after 100 iterations
  res: 2370.25 sum: -805443 nrelax: 100
WARNING: convergence for p not reached after 100 iterations
  res: 2425.7 sum: -821626 nrelax: 100
WARNING: convergence for p not reached after 100 iterations
  res: 2306.5 sum: -823151 nrelax: 100
WARNING: convergence for p not reached after 100 iterations
  res: 2374.47 sum: -834212 nrelax: 100
ffmpeg version 4.2.4-1ubuntu0.1 Copyright (c) 2000-2020 the FFmpeg developers
  built with gcc 9 (Ubuntu 9.3.0-10ubuntu2)
  configuration: --prefix=/usr --extra-version=1ubuntu0.1 --toolchain=hardened --libdir=/usr/lib/x86_64-linux-gnu --incdir=/usr/include/x86_64-linux-gnu --arch=amd64 --enable-gpl --disable-stripping --enable-avresample --disable-filter=resample --enable-avisynth --enable-gnutls --enable-ladspa --enable-libaom --enable-libass --enable-libbluray --enable-libbs2b --enable-libcaca --enable-libcdio --enable-libcodec2 --enable-libflite --enable-libfontconfig --enable-libfreetype --enable-libfribidi --enable-libgme --enable-libgsm --enable-libjack --enable-libmp3lame --enable-libmysofa --enable-libopenjpeg --enable-libopenmpt --enable-libopus --enable-libpulse --enable-librsvg --enable-librubberband --enable-libshine --enable-libsnappy --enable-libsoxr --enable-libspeex --enable-libssh --enable-libtheora --enable-libtwolame --enable-libvidstab --enable-libvorbis --enable-libvpx --enable-libwavpack --enable-libwebp --enable-libx265 --enable-libxml2 --enable-libxvid --enable-libzmq --enable-libzvbi --enable-lv2 --enable-omx --enable-openal --enable-opencl --enable-opengl --enable-sdl2 --enable-libdc1394 --enable-libdrm --enable-libiec61883 --enable-nvenc --enable-chromaprint --enable-frei0r --enable-libx264 --enable-shared
  WARNING: library configuration mismatch
  avcodec     configuration: --prefix=/usr --extra-version=1ubuntu0.1 --toolchain=hardened --libdir=/usr/lib/x86_64-linux-gnu --incdir=/usr/include/x86_64-linux-gnu --arch=amd64 --enable-gpl --disable-stripping --enable-avresample --disable-filter=resample --enable-avisynth --enable-gnutls --enable-ladspa --enable-libaom --enable-libass --enable-libbluray --enable-libbs2b --enable-libcaca --enable-libcdio --enable-libcodec2 --enable-libflite --enable-libfontconfig --enable-libfreetype --enable-libfribidi --enable-libgme --enable-libgsm --enable-libjack --enable-libmp3lame --enable-libmysofa --enable-libopenjpeg --enable-libopenmpt --enable-libopus --enable-libpulse --enable-librsvg --enable-librubberband --enable-libshine --enable-libsnappy --enable-libsoxr --enable-libspeex --enable-libssh --enable-libtheora --enable-libtwolame --enable-libvidstab --enable-libvorbis --enable-libvpx --enable-libwavpack --enable-libwebp --enable-libx265 --enable-libxml2 --enable-libxvid --enable-libzmq --enable-libzvbi --enable-lv2 --enable-omx --enable-openal --enable-opencl --enable-opengl --enable-sdl2 --enable-libdc1394 --enable-libdrm --enable-libiec61883 --enable-nvenc --enable-chromaprint --enable-frei0r --enable-libx264 --enable-shared --enable-version3 --disable-doc --disable-programs --enable-libaribb24 --enable-liblensfun --enable-libopencore_amrnb --enable-libopencore_amrwb --enable-libtesseract --enable-libvo_amrwbenc
  libavutil      56. 31.100 / 56. 31.100
  libavcodec     58. 54.100 / 58. 54.100
  libavformat    58. 29.100 / 58. 29.100
  libavdevice    58.  8.100 / 58.  8.100
  libavfilter     7. 57.100 /  7. 57.100
  libavresample   4.  0.  0 /  4.  0.  0
  libswscale      5.  5.100 /  5.  5.100
  libswresample   3.  5.100 /  3.  5.100
  libpostproc    55.  5.100 / 55.  5.100
Input #0, image2pipe, from 'pipe:':
  Duration: N/A, bitrate: N/A
    Stream #0:0: Video: ppm, rgb24, 600x600, 25 fps, 25 tbr, 25 tbn, 25 tbc
Stream mapping:
  Stream #0:0 -> #0:0 (ppm (native) -> h264 (libx264))
[libx264 @ 0x5555555dd680] using cpu capabilities: MMX2 SSE2Fast SSSE3 SSE4.2 AVX FMA3 BMI2 AVX2 AVX512
[libx264 @ 0x5555555dd680] profile High, level 3.0
Output #0, mpegts, to 'movie.mp4':
  Metadata:
    encoder         : Lavf58.29.100
    Stream #0:0: Video: h264 (libx264), yuv420p, 600x600, q=-1--1, 25 fps, 90k tbn, 25 tbc
    Metadata:
      encoder         : Lavc58.54.100 libx264
    Side data:
      cpb: bitrate max/min/avg: 0/0/0 buffer size: 0 vbv_delay: -1
frame=    7 fps=5.5 q=23.0 size=     197kB time=00:00:00.24 bitrate=6736.4kbits/s speed=0.188x    frame=    8 fps=3.4 q=22.0 size=     204kB time=00:00:00.28 bitrate=5972.8kbits/s speed=0.118x    frame=    9 fps=2.6 q=22.0 size=     211kB time=00:00:00.32 bitrate=5409.5kbits/s speed=0.0927x    frame=   10 fps=2.2 q=22.0 size=     220kB time=00:00:00.36 bitrate=5004.8kbits/s speed=0.0792x    frame=   11 fps=1.9 q=22.0 size=     228kB time=00:00:00.40 bitrate=4662.3kbits/s speed=0.0705x    frame=   12 fps=1.7 q=21.0 size=     235kB time=00:00:00.44 bitrate=4368.3kbits/s speed=0.063x    frame=   13 fps=1.6 q=21.0 size=     242kB time=00:00:00.48 bitrate=4123.4kbits/s speed=0.0586x    frame=   14 fps=1.5 q=22.0 size=     249kB time=00:00:00.52 bitrate=3916.1kbits/s speed=0.0552x    frame=   15 fps=1.4 q=21.0 size=     255kB time=00:00:00.56 bitrate=3725.0kbits/s speed=0.0533x    frame=   16 fps=1.4 q=21.0 size=     256kB time=00:00:00.60 bitrate=3495.2kbits/s speed=0.0519x    frame=   17 fps=1.4 q=21.0 size=     256kB time=00:00:00.64 bitrate=3276.7kbits/s speed=0.0508x    frame=   18 fps=1.3 q=21.0 size=     256kB time=00:00:00.68 bitrate=3084.0kbits/s speed=0.0493x    frame=   19 fps=1.3 q=21.0 size=     256kB time=00:00:00.72 bitrate=2912.7kbits/s speed=0.0481x    frame=   20 fps=1.2 q=21.0 size=     256kB time=00:00:00.76 bitrate=2759.4kbits/s speed=0.0468x    frame=   21 fps=1.2 q=21.0 size=     256kB time=00:00:00.80 bitrate=2621.4kbits/s speed=0.0466x    frame=   22 fps=1.2 q=21.0 size=     256kB time=00:00:00.84 bitrate=2496.6kbits/s speed=0.0464x    frame=   23 fps=1.2 q=21.0 size=     256kB time=00:00:00.88 bitrate=2383.1kbits/s speed=0.0461x    frame=   24 fps=1.2 q=21.0 size=     256kB time=00:00:00.92 bitrate=2279.5kbits/s speed=0.0453x    frame=   25 fps=1.2 q=21.0 size=     256kB time=00:00:00.96 bitrate=2184.5kbits/s speed=0.0448x    frame=   26 fps=1.2 q=21.0 size=     256kB time=00:00:01.00 bitrate=2097.1kbits/s speed=0.0445x    frame=   27 fps=1.1 q=21.0 size=     256kB time=00:00:01.04 bitrate=2016.5kbits/s speed=0.0442x    frame=   28 fps=1.1 q=21.0 size=     256kB time=00:00:01.08 bitrate=1941.8kbits/s speed=0.0439x    frame=   29 fps=1.1 q=21.0 size=     256kB time=00:00:01.12 bitrate=1872.4kbits/s speed=0.0434x    frame=   30 fps=1.1 q=21.0 size=     256kB time=00:00:01.16 bitrate=1807.9kbits/s speed=0.0424x    frame=   31 fps=1.1 q=21.0 size=     256kB time=00:00:01.20 bitrate=1747.6kbits/s speed=0.0412x    frame=   32 fps=1.1 q=21.0 size=     256kB time=00:00:01.24 bitrate=1691.2kbits/s speed=0.0412x    frame=   33 fps=1.1 q=21.0 size=     256kB time=00:00:01.28 bitrate=1638.4kbits/s speed=0.0409x    frame=   34 fps=1.1 q=21.0 size=     256kB time=00:00:01.32 bitrate=1588.7kbits/s speed=0.0408x    frame=   35 fps=1.0 q=21.0 size=     256kB time=00:00:01.36 bitrate=1542.0kbits/s speed=0.0406x    frame=   36 fps=1.0 q=21.0 size=     256kB time=00:00:01.40 bitrate=1498.0kbits/s speed=0.0405x    frame=   37 fps=1.0 q=21.0 size=     256kB time=00:00:01.44 bitrate=1456.3kbits/s speed=0.0394x    frame=   38 fps=1.0 q=21.0 size=     256kB time=00:00:01.48 bitrate=1417.0kbits/s speed=0.0389x    frame=   39 fps=1.0 q=21.0 size=     256kB time=00:00:01.52 bitrate=1379.7kbits/s speed=0.0386x    frame=   40 fps=1.0 q=21.0 size=     256kB time=00:00:01.56 bitrate=1344.3kbits/s speed=0.0383x    frame=   41 fps=1.0 q=21.0 size=     256kB time=00:00:01.60 bitrate=1310.7kbits/s speed=0.0377x    frame=   42 fps=1.0 q=21.0 size=     256kB time=00:00:01.64 bitrate=1278.7kbits/s speed=0.0371x    frame=   43 fps=0.9 q=21.0 size=     256kB time=00:00:01.68 bitrate=1248.3kbits/s speed=0.0366x    frame=   44 fps=0.9 q=21.0 size=     256kB time=00:00:01.72 bitrate=1219.3kbits/s speed=0.0362x    frame=   45 fps=0.9 q=21.0 size=     256kB time=00:00:01.76 bitrate=1191.6kbits/s speed=0.0357x    frame=   46 fps=0.9 q=21.0 size=     256kB time=00:00:01.80 bitrate=1165.1kbits/s speed=0.0353x    frame=   47 fps=0.9 q=20.0 size=     256kB time=00:00:01.84 bitrate=1139.7kbits/s speed=0.035x    frame=   48 fps=0.9 q=20.0 size=     256kB time=00:00:01.88 bitrate=1115.5kbits/s speed=0.0347x    frame=   49 fps=0.9 q=20.0 size=     256kB time=00:00:01.92 bitrate=1092.3kbits/s speed=0.0345x    frame=   50 fps=0.9 q=20.0 size=     256kB time=00:00:01.96 bitrate=1070.0kbits/s speed=0.0341x    frame=   51 fps=0.9 q=20.0 size=     256kB time=00:00:02.00 bitrate=1048.6kbits/s speed=0.0339x    frame=   52 fps=0.9 q=20.0 size=     256kB time=00:00:02.04 bitrate=1028.0kbits/s speed=0.0337x    frame=   53 fps=0.9 q=20.0 size=     256kB time=00:00:02.08 bitrate=1008.2kbits/s speed=0.0336x    frame=   54 fps=0.9 q=20.0 size=     256kB time=00:00:02.12 bitrate= 989.2kbits/s speed=0.0335x    frame=   55 fps=0.9 q=20.0 size=     512kB time=00:00:02.16 bitrate=1941.8kbits/s speed=0.0335x    frame=   56 fps=0.9 q=20.0 size=     512kB time=00:00:02.20 bitrate=1906.5kbits/s speed=0.0335x    frame=   57 fps=0.8 q=20.0 size=     512kB time=00:00:02.24 bitrate=1872.4kbits/s speed=0.0334x    frame=   58 fps=0.9 q=20.0 size=     512kB time=00:00:02.28 bitrate=1839.6kbits/s speed=0.0334x    frame=   59 fps=0.9 q=20.0 size=     512kB time=00:00:02.32 bitrate=1807.9kbits/s speed=0.0335x    frame=   60 fps=0.8 q=20.0 size=     512kB time=00:00:02.36 bitrate=1777.2kbits/s speed=0.0334x    frame=   61 fps=0.8 q=19.0 size=     512kB time=00:00:02.40 bitrate=1747.6kbits/s speed=0.0334x    frame=   62 fps=0.8 q=20.0 size=     512kB time=00:00:02.44 bitrate=1719.0kbits/s speed=0.0333x    frame=   63 fps=0.8 q=20.0 size=     512kB time=00:00:02.48 bitrate=1691.2kbits/s speed=0.0332x    frame=   64 fps=0.8 q=20.0 size=     512kB time=00:00:02.52 bitrate=1664.4kbits/s speed=0.0331x    frame=   65 fps=0.8 q=20.0 size=     512kB time=00:00:02.56 bitrate=1638.4kbits/s speed=0.0331x    frame=   66 fps=0.8 q=20.0 size=     512kB time=00:00:02.60 bitrate=1613.2kbits/s speed=0.033x    frame=   67 fps=0.8 q=20.0 size=     512kB time=00:00:02.64 bitrate=1588.7kbits/s speed=0.033x    frame=   68 fps=0.8 q=20.0 size=     512kB time=00:00:02.68 bitrate=1565.0kbits/s speed=0.033x    frame=   69 fps=0.8 q=20.0 size=     512kB time=00:00:02.72 bitrate=1542.0kbits/s speed=0.0329x    frame=   70 fps=0.8 q=20.0 size=     512kB time=00:00:02.76 bitrate=1519.7kbits/s speed=0.0329x    frame=   71 fps=0.8 q=19.0 size=     512kB time=00:00:02.80 bitrate=1498.0kbits/s speed=0.0329x    frame=   72 fps=0.8 q=19.0 size=     512kB time=00:00:02.84 bitrate=1476.9kbits/s speed=0.0329x    frame=   73 fps=0.8 q=19.0 size=     512kB time=00:00:02.88 bitrate=1456.3kbits/s speed=0.033x    frame=   74 fps=0.8 q=19.0 size=     512kB time=00:00:02.92 bitrate=1436.4kbits/s speed=0.033x    frame=   75 fps=0.8 q=19.0 size=     512kB time=00:00:02.96 bitrate=1417.0kbits/s speed=0.0327x    frame=   76 fps=0.8 q=19.0 size=     512kB time=00:00:03.00 bitrate=1398.1kbits/s speed=0.0326x    frame=   77 fps=0.8 q=19.0 size=     512kB time=00:00:03.04 bitrate=1379.7kbits/s speed=0.0325x    frame=   78 fps=0.8 q=19.0 size=     512kB time=00:00:03.08 bitrate=1361.8kbits/s speed=0.0324x    frame=   79 fps=0.8 q=19.0 size=     512kB time=00:00:03.12 bitrate=1344.3kbits/s speed=0.0322x    frame=   80 fps=0.8 q=19.0 size=     512kB time=00:00:03.16 bitrate=1327.3kbits/s speed=0.0321x    frame=   81 fps=0.8 q=19.0 size=     512kB time=00:00:03.20 bitrate=1310.7kbits/s speed=0.032x    frame=   82 fps=0.8 q=19.0 size=     512kB time=00:00:03.24 bitrate=1294.5kbits/s speed=0.032x    frame=   83 fps=0.8 q=19.0 size=     512kB time=00:00:03.28 bitrate=1278.7kbits/s speed=0.0318x    frame=   84 fps=0.8 q=19.0 size=     512kB time=00:00:03.32 bitrate=1263.3kbits/s speed=0.0317x    frame=   85 fps=0.8 q=19.0 size=     512kB time=00:00:03.36 bitrate=1248.3kbits/s speed=0.0317x    frame=   86 fps=0.8 q=19.0 size=     512kB time=00:00:03.40 bitrate=1233.6kbits/s speed=0.0316x    frame=   87 fps=0.8 q=19.0 size=     512kB time=00:00:03.44 bitrate=1219.3kbits/s speed=0.0316x    frame=   88 fps=0.8 q=19.0 size=     512kB time=00:00:03.48 bitrate=1205.3kbits/s speed=0.0316x    frame=   89 fps=0.8 q=19.0 size=     512kB time=00:00:03.52 bitrate=1191.6kbits/s speed=0.0316x    frame=   90 fps=0.8 q=19.0 size=     512kB time=00:00:03.56 bitrate=1178.2kbits/s speed=0.0316x    frame=   91 fps=0.8 q=19.0 size=     512kB time=00:00:03.60 bitrate=1165.1kbits/s speed=0.0317x    frame=   92 fps=0.8 q=19.0 size=     512kB time=00:00:03.64 bitrate=1152.3kbits/s speed=0.0317x    frame=   93 fps=0.8 q=19.0 size=     512kB time=00:00:03.68 bitrate=1139.8kbits/s speed=0.0317x    frame=   94 fps=0.8 q=19.0 size=     512kB time=00:00:03.72 bitrate=1127.5kbits/s speed=0.0317x    frame=   95 fps=0.8 q=19.0 size=     512kB time=00:00:03.76 bitrate=1115.5kbits/s speed=0.0317x    frame=   96 fps=0.8 q=19.0 size=     512kB time=00:00:03.80 bitrate=1103.8kbits/s speed=0.0317x    frame=   97 fps=0.8 q=19.0 size=     512kB time=00:00:03.84 bitrate=1092.3kbits/s speed=0.0317x    frame=   98 fps=0.8 q=19.0 size=     512kB time=00:00:03.88 bitrate=1081.0kbits/s speed=0.0316x    frame=   99 fps=0.8 q=19.0 size=     512kB time=00:00:03.92 bitrate=1070.0kbits/s speed=0.0317x    frame=  100 fps=0.8 q=19.0 size=     512kB time=00:00:03.96 bitrate=1059.2kbits/s speed=0.0317x    frame=  101 fps=0.8 q=19.0 size=     512kB time=00:00:04.00 bitrate=1048.6kbits/s speed=0.0318x    frame=  102 fps=0.8 q=19.0 size=     768kB time=00:00:04.04 bitrate=1557.3kbits/s speed=0.0318x    frame=  103 fps=0.8 q=19.0 size=     768kB time=00:00:04.08 bitrate=1542.0kbits/s speed=0.0319x    frame=  104 fps=0.8 q=19.0 size=     768kB time=00:00:04.12 bitrate=1527.0kbits/s speed=0.0319x    frame=  105 fps=0.8 q=19.0 size=     768kB time=00:00:04.16 bitrate=1512.4kbits/s speed=0.0319x    frame=  106 fps=0.8 q=19.0 size=     768kB time=00:00:04.20 bitrate=1498.0kbits/s speed=0.0319x    frame=  107 fps=0.8 q=19.0 size=     768kB time=00:00:04.24 bitrate=1483.8kbits/s speed=0.0319x    frame=  108 fps=0.8 q=19.0 size=     768kB time=00:00:04.28 bitrate=1470.0kbits/s speed=0.0319x    frame=  109 fps=0.8 q=19.0 size=     768kB time=00:00:04.32 bitrate=1456.4kbits/s speed=0.032x    frame=  110 fps=0.8 q=19.0 size=     768kB time=00:00:04.36 bitrate=1443.0kbits/s speed=0.032x    frame=  111 fps=0.8 q=19.0 size=     768kB time=00:00:04.40 bitrate=1429.9kbits/s speed=0.0321x    frame=  112 fps=0.8 q=19.0 size=     768kB time=00:00:04.44 bitrate=1417.0kbits/s speed=0.0321x    frame=  113 fps=0.8 q=19.0 size=     768kB time=00:00:04.48 bitrate=1404.3kbits/s speed=0.0322x    frame=  114 fps=0.8 q=19.0 size=     768kB time=00:00:04.52 bitrate=1391.9kbits/s speed=0.0322x    frame=  115 fps=0.8 q=19.0 size=     768kB time=00:00:04.56 bitrate=1379.7kbits/s speed=0.0323x    frame=  116 fps=0.8 q=19.0 size=     768kB time=00:00:04.60 bitrate=1367.7kbits/s speed=0.0323x    frame=  117 fps=0.8 q=19.0 size=     768kB time=00:00:04.64 bitrate=1355.9kbits/s speed=0.0324x    frame=  118 fps=0.8 q=19.0 size=     768kB time=00:00:04.68 bitrate=1344.3kbits/s speed=0.0325x    frame=  119 fps=0.8 q=18.0 size=     768kB time=00:00:04.72 bitrate=1332.9kbits/s speed=0.0325x    frame=  120 fps=0.8 q=19.0 size=     768kB time=00:00:04.76 bitrate=1321.7kbits/s speed=0.0326x    frame=  121 fps=0.8 q=19.0 size=     768kB time=00:00:04.80 bitrate=1310.7kbits/s speed=0.0327x    frame=  122 fps=0.8 q=19.0 size=     768kB time=00:00:04.84 bitrate=1299.9kbits/s speed=0.0328x    frame=  123 fps=0.8 q=19.0 size=     768kB time=00:00:04.88 bitrate=1289.2kbits/s speed=0.0328x    frame=  124 fps=0.8 q=19.0 size=     768kB time=00:00:04.92 bitrate=1278.7kbits/s speed=0.0328x    frame=  125 fps=0.8 q=19.0 size=     768kB time=00:00:04.96 bitrate=1268.4kbits/s speed=0.0329x    frame=  126 fps=0.8 q=19.0 size=     768kB time=00:00:05.00 bitrate=1258.3kbits/s speed=0.0329x    frame=  127 fps=0.8 q=19.0 size=     768kB time=00:00:05.04 bitrate=1248.3kbits/s speed=0.033x    frame=  128 fps=0.8 q=19.0 size=     768kB time=00:00:05.08 bitrate=1238.5kbits/s speed=0.0331x    frame=  129 fps=0.8 q=19.0 size=     768kB time=00:00:05.12 bitrate=1228.8kbits/s speed=0.0331x    frame=  130 fps=0.8 q=19.0 size=     768kB time=00:00:05.16 bitrate=1219.3kbits/s speed=0.0332x    frame=  131 fps=0.8 q=19.0 size=     768kB time=00:00:05.20 bitrate=1209.9kbits/s speed=0.0333x    frame=  132 fps=0.8 q=18.0 size=     768kB time=00:00:05.24 bitrate=1200.7kbits/s speed=0.0333x    frame=  133 fps=0.8 q=18.0 size=     768kB time=00:00:05.28 bitrate=1191.6kbits/s speed=0.0334x    frame=  134 fps=0.8 q=18.0 size=     768kB time=00:00:05.32 bitrate=1182.6kbits/s speed=0.0334x    frame=  135 fps=0.8 q=18.0 size=     768kB time=00:00:05.36 bitrate=1173.8kbits/s speed=0.0335x    frame=  136 fps=0.8 q=18.0 size=     768kB time=00:00:05.40 bitrate=1165.1kbits/s speed=0.0334x    frame=  137 fps=0.8 q=18.0 size=     768kB time=00:00:05.44 bitrate=1156.5kbits/s speed=0.0333x    frame=  138 fps=0.8 q=18.0 size=     768kB time=00:00:05.48 bitrate=1148.1kbits/s speed=0.0333x    frame=  139 fps=0.8 q=18.0 size=     768kB time=00:00:05.52 bitrate=1139.8kbits/s speed=0.0333x    frame=  140 fps=0.8 q=18.0 size=     768kB time=00:00:05.56 bitrate=1131.6kbits/s speed=0.0333x    frame=  141 fps=0.8 q=18.0 size=     768kB time=00:00:05.60 bitrate=1123.5kbits/s speed=0.0332x    frame=  142 fps=0.8 q=18.0 size=     768kB time=00:00:05.64 bitrate=1115.5kbits/s speed=0.0331x    frame=  143 fps=0.8 q=18.0 size=     768kB time=00:00:05.68 bitrate=1107.6kbits/s speed=0.0331x    frame=  144 fps=0.8 q=18.0 size=     768kB time=00:00:05.72 bitrate=1099.9kbits/s speed=0.033x    frame=  145 fps=0.8 q=18.0 size=     768kB time=00:00:05.76 bitrate=1092.3kbits/s speed=0.0329x    frame=  146 fps=0.8 q=18.0 size=     768kB time=00:00:05.80 bitrate=1084.7kbits/s speed=0.0329x    frame=  147 fps=0.8 q=18.0 size=     768kB time=00:00:05.84 bitrate=1077.3kbits/s speed=0.0328x    frame=  148 fps=0.8 q=18.0 size=     768kB time=00:00:05.88 bitrate=1070.0kbits/s speed=0.0328x    frame=  149 fps=0.8 q=18.0 size=     768kB time=00:00:05.92 bitrate=1062.7kbits/s speed=0.0327x    frame=  150 fps=0.8 q=18.0 size=     768kB time=00:00:05.96 bitrate=1055.6kbits/s speed=0.0326x    frame=  151 fps=0.8 q=18.0 size=    1024kB time=00:00:06.00 bitrate=1398.1kbits/s speed=0.0325x    frame=  152 fps=0.8 q=18.0 size=    1024kB time=00:00:06.04 bitrate=1388.8kbits/s speed=0.0325x    frame=  153 fps=0.8 q=18.0 size=    1024kB time=00:00:06.08 bitrate=1379.7kbits/s speed=0.0324x    frame=  154 fps=0.8 q=18.0 size=    1024kB time=00:00:06.12 bitrate=1370.7kbits/s speed=0.0324x    frame=  155 fps=0.8 q=18.0 size=    1024kB time=00:00:06.16 bitrate=1361.8kbits/s speed=0.0323x    frame=  156 fps=0.8 q=18.0 size=    1024kB time=00:00:06.20 bitrate=1353.0kbits/s speed=0.0323x    frame=  157 fps=0.8 q=18.0 size=    1024kB time=00:00:06.24 bitrate=1344.3kbits/s speed=0.0322x    frame=  158 fps=0.8 q=18.0 size=    1024kB time=00:00:06.28 bitrate=1335.8kbits/s speed=0.0322x    frame=  159 fps=0.8 q=18.0 size=    1024kB time=00:00:06.32 bitrate=1327.3kbits/s speed=0.0322x    frame=  160 fps=0.8 q=18.0 size=    1024kB time=00:00:06.36 bitrate=1319.0kbits/s speed=0.0321x    frame=  161 fps=0.8 q=18.0 size=    1024kB time=00:00:06.40 bitrate=1310.7kbits/s speed=0.0321x    frame=  162 fps=0.8 q=18.0 size=    1024kB time=00:00:06.44 bitrate=1302.6kbits/s speed=0.0321x    frame=  163 fps=0.8 q=18.0 size=    1024kB time=00:00:06.48 bitrate=1294.5kbits/s speed=0.0321x    frame=  164 fps=0.8 q=18.0 size=    1024kB time=00:00:06.52 bitrate=1286.6kbits/s speed=0.0321x    frame=  165 fps=0.8 q=18.0 size=    1024kB time=00:00:06.56 bitrate=1278.7kbits/s speed=0.0321x    frame=  166 fps=0.8 q=18.0 size=    1024kB time=00:00:06.60 bitrate=1271.0kbits/s speed=0.0321x    frame=  167 fps=0.8 q=18.0 size=    1024kB time=00:00:06.64 bitrate=1263.3kbits/s speed=0.0321x    frame=  168 fps=0.8 q=23.0 size=    1024kB time=00:00:06.68 bitrate=1255.8kbits/s speed=0.0321x    frame=  169 fps=0.8 q=24.0 size=    1024kB time=00:00:06.72 bitrate=1248.3kbits/s speed=0.0321x    frame=  170 fps=0.8 q=23.0 size=    1024kB time=00:00:06.76 bitrate=1240.9kbits/s speed=0.0321x    frame=  171 fps=0.8 q=22.0 size=    1024kB time=00:00:06.80 bitrate=1233.6kbits/s speed=0.032x    frame=  172 fps=0.8 q=21.0 size=    1024kB time=00:00:06.84 bitrate=1226.4kbits/s speed=0.032x    frame=  173 fps=0.8 q=21.0 size=    1024kB time=00:00:06.88 bitrate=1219.3kbits/s speed=0.0319x    frame=  174 fps=0.8 q=21.0 size=    1024kB time=00:00:06.92 bitrate=1212.2kbits/s speed=0.0319x    frame=  175 fps=0.8 q=21.0 size=    1024kB time=00:00:06.96 bitrate=1205.3kbits/s speed=0.0319x    frame=  176 fps=0.8 q=20.0 size=    1024kB time=00:00:07.00 bitrate=1198.4kbits/s speed=0.0319x    frame=  177 fps=0.8 q=20.0 size=    1024kB time=00:00:07.04 bitrate=1191.6kbits/s speed=0.0319x    frame=  178 fps=0.8 q=20.0 size=    1024kB time=00:00:07.08 bitrate=1184.8kbits/s speed=0.0319x    frame=  179 fps=0.8 q=20.0 size=    1024kB time=00:00:07.12 bitrate=1178.2kbits/s speed=0.0319x    frame=  180 fps=0.8 q=20.0 size=    1024kB time=00:00:07.16 bitrate=1171.6kbits/s speed=0.0319x    frame=  181 fps=0.8 q=20.0 size=    1024kB time=00:00:07.20 bitrate=1165.1kbits/s speed=0.0319x    frame=  182 fps=0.8 q=20.0 size=    1024kB time=00:00:07.24 bitrate=1158.6kbits/s speed=0.0319x    frame=  183 fps=0.8 q=20.0 size=    1024kB time=00:00:07.28 bitrate=1152.3kbits/s speed=0.0319x    frame=  184 fps=0.8 q=20.0 size=    1024kB time=00:00:07.32 bitrate=1146.0kbits/s speed=0.0319x    frame=  185 fps=0.8 q=21.0 size=    1024kB time=00:00:07.36 bitrate=1139.8kbits/s speed=0.0319x    frame=  186 fps=0.8 q=21.0 size=    1024kB time=00:00:07.40 bitrate=1133.6kbits/s speed=0.0318x    frame=  187 fps=0.8 q=21.0 size=    1024kB time=00:00:07.44 bitrate=1127.5kbits/s speed=0.0317x    frame=  188 fps=0.8 q=20.0 size=    1024kB time=00:00:07.48 bitrate=1121.5kbits/s speed=0.0316x    frame=  189 fps=0.8 q=21.0 size=    1024kB time=00:00:07.52 bitrate=1115.5kbits/s speed=0.0316x    frame=  190 fps=0.8 q=21.0 size=    1024kB time=00:00:07.56 bitrate=1109.6kbits/s speed=0.0316x    frame=  191 fps=0.8 q=20.0 size=    1280kB time=00:00:07.60 bitrate=1379.7kbits/s speed=0.0316x    frame=  192 fps=0.8 q=20.0 size=    1280kB time=00:00:07.64 bitrate=1372.5kbits/s speed=0.0316x    frame=  193 fps=0.8 q=20.0 size=    1280kB time=00:00:07.68 bitrate=1365.3kbits/s speed=0.0315x    frame=  194 fps=0.8 q=20.0 size=    1280kB time=00:00:07.72 bitrate=1358.3kbits/s speed=0.0315x    frame=  195 fps=0.8 q=20.0 size=    1280kB time=00:00:07.76 bitrate=1351.3kbits/s speed=0.0314x    frame=  196 fps=0.8 q=20.0 size=    1280kB time=00:00:07.80 bitrate=1344.3kbits/s speed=0.0314x    frame=  197 fps=0.8 q=20.0 size=    1280kB time=00:00:07.84 bitrate=1337.5kbits/s speed=0.0314x    frame=  198 fps=0.8 q=21.0 size=    1280kB time=00:00:07.88 bitrate=1330.7kbits/s speed=0.0314x    frame=  199 fps=0.8 q=20.0 size=    1280kB time=00:00:07.92 bitrate=1324.0kbits/s speed=0.0314x    frame=  200 fps=0.8 q=20.0 size=    1280kB time=00:00:07.96 bitrate=1317.3kbits/s speed=0.0314x    frame=  201 fps=0.8 q=20.0 size=    1280kB time=00:00:08.00 bitrate=1310.7kbits/s speed=0.0314x    frame=  202 fps=0.8 q=20.0 size=    1280kB time=00:00:08.04 bitrate=1304.2kbits/s speed=0.0314x    frame=  203 fps=0.8 q=20.0 size=    1280kB time=00:00:08.08 bitrate=1297.7kbits/s speed=0.0315x    frame=  204 fps=0.8 q=20.0 size=    1280kB time=00:00:08.12 bitrate=1291.3kbits/s speed=0.0315x    frame=  205 fps=0.8 q=20.0 size=    1280kB time=00:00:08.16 bitrate=1285.0kbits/s speed=0.0316x    frame=  206 fps=0.8 q=20.0 size=    1280kB time=00:00:08.20 bitrate=1278.7kbits/s speed=0.0316x    frame=  207 fps=0.8 q=20.0 size=    1280kB time=00:00:08.24 bitrate=1272.5kbits/s speed=0.0316x    frame=  208 fps=0.8 q=21.0 size=    1280kB time=00:00:08.28 bitrate=1266.4kbits/s speed=0.0316x    frame=  209 fps=0.8 q=21.0 size=    1280kB time=00:00:08.32 bitrate=1260.3kbits/s speed=0.0316x    frame=  210 fps=0.8 q=21.0 size=    1280kB time=00:00:08.36 bitrate=1254.3kbits/s speed=0.0317x    frame=  211 fps=0.8 q=20.0 size=    1280kB time=00:00:08.40 bitrate=1248.3kbits/s speed=0.0317x    frame=  212 fps=0.8 q=20.0 size=    1280kB time=00:00:08.44 bitrate=1242.4kbits/s speed=0.0317x    frame=  213 fps=0.8 q=20.0 size=    1280kB time=00:00:08.48 bitrate=1236.5kbits/s speed=0.0317x    frame=  214 fps=0.8 q=20.0 size=    1280kB time=00:00:08.52 bitrate=1230.7kbits/s speed=0.0317x    frame=  215 fps=0.8 q=20.0 size=    1280kB time=00:00:08.56 bitrate=1225.0kbits/s speed=0.0317x    frame=  216 fps=0.8 q=20.0 size=    1280kB time=00:00:08.60 bitrate=1219.3kbits/s speed=0.0317x    frame=  217 fps=0.8 q=20.0 size=    1280kB time=00:00:08.64 bitrate=1213.6kbits/s speed=0.0318x    frame=  218 fps=0.8 q=20.0 size=    1280kB time=00:00:08.68 bitrate=1208.0kbits/s speed=0.0318x    frame=  219 fps=0.8 q=20.0 size=    1280kB time=00:00:08.72 bitrate=1202.5kbits/s speed=0.0318x    frame=  220 fps=0.8 q=20.0 size=    1280kB time=00:00:08.76 bitrate=1197.0kbits/s speed=0.0319x    frame=  221 fps=0.8 q=20.0 size=    1280kB time=00:00:08.80 bitrate=1191.6kbits/s speed=0.0319x    frame=  222 fps=0.8 q=20.0 size=    1280kB time=00:00:08.84 bitrate=1186.2kbits/s speed=0.0319x    frame=  223 fps=0.8 q=20.0 size=    1280kB time=00:00:08.88 bitrate=1180.8kbits/s speed=0.0319x    frame=  224 fps=0.8 q=20.0 size=    1280kB time=00:00:08.92 bitrate=1175.5kbits/s speed=0.0319x    frame=  225 fps=0.8 q=20.0 size=    1280kB time=00:00:08.96 bitrate=1170.3kbits/s speed=0.0319x    frame=  226 fps=0.8 q=20.0 size=    1280kB time=00:00:09.00 bitrate=1165.1kbits/s speed=0.0319x    frame=  227 fps=0.8 q=20.0 size=    1280kB time=00:00:09.04 bitrate=1159.9kbits/s speed=0.0318x    frame=  228 fps=0.8 q=20.0 size=    1280kB time=00:00:09.08 bitrate=1154.8kbits/s speed=0.0318x    frame=  229 fps=0.8 q=20.0 size=    1280kB time=00:00:09.12 bitrate=1149.8kbits/s speed=0.0319x    frame=  230 fps=0.8 q=20.0 size=    1280kB time=00:00:09.16 bitrate=1144.7kbits/s speed=0.0319x    frame=  231 fps=0.8 q=20.0 size=    1280kB time=00:00:09.20 bitrate=1139.8kbits/s speed=0.0319x    frame=  232 fps=0.8 q=20.0 size=    1280kB time=00:00:09.24 bitrate=1134.8kbits/s speed=0.0319x    frame=  233 fps=0.8 q=20.0 size=    1280kB time=00:00:09.28 bitrate=1129.9kbits/s speed=0.0319x    frame=  234 fps=0.8 q=20.0 size=    1280kB time=00:00:09.32 bitrate=1125.1kbits/s speed=0.032x    frame=  235 fps=0.8 q=20.0 size=    1280kB time=00:00:09.36 bitrate=1120.3kbits/s speed=0.032x    frame=  236 fps=0.8 q=20.0 size=    1280kB time=00:00:09.40 bitrate=1115.5kbits/s speed=0.032x    frame=  237 fps=0.8 q=20.0 size=    1280kB time=00:00:09.44 bitrate=1110.8kbits/s speed=0.032x    frame=  238 fps=0.8 q=20.0 size=    1280kB time=00:00:09.48 bitrate=1106.1kbits/s speed=0.0321x    frame=  239 fps=0.8 q=20.0 size=    1280kB time=00:00:09.52 bitrate=1101.4kbits/s speed=0.0321x    frame=  240 fps=0.8 q=20.0 size=    1280kB time=00:00:09.56 bitrate=1096.8kbits/s speed=0.0321x    frame=  241 fps=0.8 q=20.0 size=    1280kB time=00:00:09.60 bitrate=1092.3kbits/s speed=0.0322x    frame=  242 fps=0.8 q=20.0 size=    1280kB time=00:00:09.64 bitrate=1087.7kbits/s speed=0.0322x    frame=  243 fps=0.8 q=20.0 size=    1536kB time=00:00:09.68 bitrate=1299.9kbits/s speed=0.0322x    frame=  244 fps=0.8 q=20.0 size=    1536kB time=00:00:09.72 bitrate=1294.5kbits/s speed=0.0322x    frame=  245 fps=0.8 q=20.0 size=    1536kB time=00:00:09.76 bitrate=1289.2kbits/s speed=0.0322x    frame=  246 fps=0.8 q=20.0 size=    1536kB time=00:00:09.80 bitrate=1284.0kbits/s speed=0.0322x    frame=  247 fps=0.8 q=20.0 size=    1536kB time=00:00:09.84 bitrate=1278.7kbits/s speed=0.0322x    frame=  248 fps=0.8 q=20.0 size=    1536kB time=00:00:09.88 bitrate=1273.6kbits/s speed=0.0323x    frame=  249 fps=0.8 q=20.0 size=    1536kB time=00:00:09.92 bitrate=1268.4kbits/s speed=0.0323x    frame=  250 fps=0.8 q=20.0 size=    1536kB time=00:00:09.96 bitrate=1263.3kbits/s speed=0.0322x    frame=  251 fps=0.8 q=17.0 size=    1536kB time=00:00:10.00 bitrate=1258.3kbits/s speed=0.0322x    frame=  252 fps=0.8 q=23.0 size=    1536kB time=00:00:10.04 bitrate=1253.3kbits/s speed=0.0322x    frame=  253 fps=0.8 q=22.0 size=    1536kB time=00:00:10.08 bitrate=1248.3kbits/s speed=0.0322x    frame=  254 fps=0.8 q=21.0 size=    1536kB time=00:00:10.12 bitrate=1243.4kbits/s speed=0.0322x    frame=  255 fps=0.8 q=20.0 size=    1536kB time=00:00:10.16 bitrate=1238.5kbits/s speed=0.0321x    frame=  256 fps=0.8 q=20.0 size=    1536kB time=00:00:10.20 bitrate=1233.6kbits/s speed=0.0321x    frame=  257 fps=0.8 q=20.0 size=    1536kB time=00:00:10.24 bitrate=1228.8kbits/s speed=0.032x    frame=  258 fps=0.8 q=20.0 size=    1536kB time=00:00:10.28 bitrate=1224.0kbits/s speed=0.032x    frame=  259 fps=0.8 q=20.0 size=    1536kB time=00:00:10.32 bitrate=1219.3kbits/s speed=0.032x    frame=  260 fps=0.8 q=20.0 size=    1536kB time=00:00:10.36 bitrate=1214.6kbits/s speed=0.0319x    frame=  261 fps=0.8 q=20.0 size=    1536kB time=00:00:10.40 bitrate=1209.9kbits/s speed=0.0319x    frame=  262 fps=0.8 q=20.0 size=    1536kB time=00:00:10.44 bitrate=1205.3kbits/s speed=0.0319x    frame=  263 fps=0.8 q=20.0 size=    1536kB time=00:00:10.48 bitrate=1200.7kbits/s speed=0.0318x    frame=  264 fps=0.8 q=20.0 size=    1536kB time=00:00:10.52 bitrate=1196.1kbits/s speed=0.0318x    frame=  265 fps=0.8 q=20.0 size=    1536kB time=00:00:10.56 bitrate=1191.6kbits/s speed=0.0317x    frame=  266 fps=0.8 q=20.0 size=    1536kB time=00:00:10.60 bitrate=1187.1kbits/s speed=0.0317x    frame=  267 fps=0.8 q=19.0 size=    1536kB time=00:00:10.64 bitrate=1182.6kbits/s speed=0.0317x    frame=  268 fps=0.8 q=20.0 size=    1536kB time=00:00:10.68 bitrate=1178.2kbits/s speed=0.0317x    frame=  269 fps=0.8 q=20.0 size=    1536kB time=00:00:10.72 bitrate=1173.8kbits/s speed=0.0316x    frame=  270 fps=0.8 q=20.0 size=    1536kB time=00:00:10.76 bitrate=1169.4kbits/s speed=0.0316x    frame=  271 fps=0.8 q=19.0 size=    1536kB time=00:00:10.80 bitrate=1165.1kbits/s speed=0.0316x    frame=  272 fps=0.8 q=19.0 size=    1536kB time=00:00:10.84 bitrate=1160.8kbits/s speed=0.0316x    frame=  273 fps=0.8 q=19.0 size=    1536kB time=00:00:10.88 bitrate=1156.5kbits/s speed=0.0315x    frame=  274 fps=0.8 q=19.0 size=    1536kB time=00:00:10.92 bitrate=1152.3kbits/s speed=0.0315x    frame=  275 fps=0.8 q=19.0 size=    1536kB time=00:00:10.96 bitrate=1148.1kbits/s speed=0.0315x    frame=  276 fps=0.8 q=19.0 size=    1536kB time=00:00:11.00 bitrate=1143.9kbits/s speed=0.0315x    frame=  277 fps=0.8 q=20.0 size=    1536kB time=00:00:11.04 bitrate=1139.8kbits/s speed=0.0315x    frame=  278 fps=0.8 q=19.0 size=    1536kB time=00:00:11.08 bitrate=1135.6kbits/s speed=0.0315x    frame=  279 fps=0.8 q=19.0 size=    1536kB time=00:00:11.12 bitrate=1131.6kbits/s speed=0.0314x    frame=  280 fps=0.8 q=19.0 size=    1792kB time=00:00:11.16 bitrate=1315.4kbits/s speed=0.0314x    frame=  281 fps=0.8 q=19.0 size=    1792kB time=00:00:11.20 bitrate=1310.7kbits/s speed=0.0314x    frame=  282 fps=0.8 q=19.0 size=    1792kB time=00:00:11.24 bitrate=1306.1kbits/s speed=0.0313x    frame=  283 fps=0.8 q=19.0 size=    1792kB time=00:00:11.28 bitrate=1301.4kbits/s speed=0.0313x    frame=  284 fps=0.8 q=19.0 size=    1792kB time=00:00:11.32 bitrate=1296.8kbits/s speed=0.0313x    frame=  285 fps=0.8 q=19.0 size=    1792kB time=00:00:11.36 bitrate=1292.3kbits/s speed=0.0312x    frame=  286 fps=0.8 q=19.0 size=    1792kB time=00:00:11.40 bitrate=1287.7kbits/s speed=0.0312x    frame=  287 fps=0.8 q=19.0 size=    1792kB time=00:00:11.44 bitrate=1283.2kbits/s speed=0.0311x    frame=  288 fps=0.8 q=19.0 size=    1792kB time=00:00:11.48 bitrate=1278.7kbits/s speed=0.0311x    frame=  289 fps=0.8 q=19.0 size=    1792kB time=00:00:11.52 bitrate=1274.3kbits/s speed=0.031x    frame=  290 fps=0.8 q=19.0 size=    1792kB time=00:00:11.56 bitrate=1269.9kbits/s speed=0.031x    frame=  291 fps=0.8 q=19.0 size=    1792kB time=00:00:11.60 bitrate=1265.5kbits/s speed=0.031x    frame=  292 fps=0.8 q=19.0 size=    1792kB time=00:00:11.64 bitrate=1261.2kbits/s speed=0.031x    frame=  293 fps=0.8 q=19.0 size=    1792kB time=00:00:11.68 bitrate=1256.9kbits/s speed=0.0309x    frame=  294 fps=0.8 q=19.0 size=    1792kB time=00:00:11.72 bitrate=1252.6kbits/s speed=0.0309x    frame=  295 fps=0.8 q=19.0 size=    1792kB time=00:00:11.76 bitrate=1248.3kbits/s speed=0.0309x    frame=  296 fps=0.8 q=19.0 size=    1792kB time=00:00:11.80 bitrate=1244.1kbits/s speed=0.0309x    frame=  297 fps=0.8 q=19.0 size=    1792kB time=00:00:11.84 bitrate=1239.9kbits/s speed=0.0309x    frame=  298 fps=0.8 q=19.0 size=    1792kB time=00:00:11.88 bitrate=1235.7kbits/s speed=0.0309x    frame=  299 fps=0.8 q=19.0 size=    1792kB time=00:00:11.92 bitrate=1231.5kbits/s speed=0.0308x    frame=  300 fps=0.8 q=19.0 size=    1792kB time=00:00:11.96 bitrate=1227.4kbits/s speed=0.0308x    frame=  301 fps=0.8 q=19.0 size=    1792kB time=00:00:12.00 bitrate=1223.3kbits/s speed=0.0308x    frame=  302 fps=0.8 q=19.0 size=    1792kB time=00:00:12.04 bitrate=1219.3kbits/s speed=0.0308x    frame=  303 fps=0.8 q=19.0 size=    1792kB time=00:00:12.08 bitrate=1215.2kbits/s speed=0.0308x    frame=  304 fps=0.8 q=19.0 size=    1792kB time=00:00:12.12 bitrate=1211.2kbits/s speed=0.0308x    frame=  305 fps=0.8 q=19.0 size=    1792kB time=00:00:12.16 bitrate=1207.2kbits/s speed=0.0308x    frame=  306 fps=0.8 q=19.0 size=    1792kB time=00:00:12.20 bitrate=1203.3kbits/s speed=0.0308x    frame=  307 fps=0.8 q=19.0 size=    1792kB time=00:00:12.24 bitrate=1199.4kbits/s speed=0.0308x    frame=  308 fps=0.8 q=19.0 size=    1792kB time=00:00:12.28 bitrate=1195.4kbits/s speed=0.0308x    frame=  309 fps=0.8 q=19.0 size=    1792kB time=00:00:12.32 bitrate=1191.6kbits/s speed=0.0308x    frame=  310 fps=0.8 q=19.0 size=    1792kB time=00:00:12.36 bitrate=1187.7kbits/s speed=0.0308x    frame=  311 fps=0.8 q=19.0 size=    1792kB time=00:00:12.40 bitrate=1183.9kbits/s speed=0.0308x    frame=  312 fps=0.8 q=19.0 size=    1792kB time=00:00:12.44 bitrate=1180.1kbits/s speed=0.0308x    frame=  313 fps=0.8 q=19.0 size=    1792kB time=00:00:12.48 bitrate=1176.3kbits/s speed=0.0308x    frame=  314 fps=0.8 q=19.0 size=    1792kB time=00:00:12.52 bitrate=1172.5kbits/s speed=0.0308x    frame=  315 fps=0.8 q=19.0 size=    1792kB time=00:00:12.56 bitrate=1168.8kbits/s speed=0.0309x    frame=  316 fps=0.8 q=19.0 size=    1792kB time=00:00:12.60 bitrate=1165.1kbits/s speed=0.0308x    frame=  317 fps=0.8 q=19.0 size=    1792kB time=00:00:12.64 bitrate=1161.4kbits/s speed=0.0308x    frame=  318 fps=0.8 q=19.0 size=    1792kB time=00:00:12.68 bitrate=1157.7kbits/s speed=0.0308x    frame=  319 fps=0.8 q=19.0 size=    1792kB time=00:00:12.72 bitrate=1154.1kbits/s speed=0.0308x    frame=  320 fps=0.8 q=19.0 size=    1792kB time=00:00:12.76 bitrate=1150.5kbits/s speed=0.0307x    frame=  321 fps=0.8 q=19.0 size=    1792kB time=00:00:12.80 bitrate=1146.9kbits/s speed=0.0307x    frame=  322 fps=0.8 q=19.0 size=    1792kB time=00:00:12.84 bitrate=1143.3kbits/s speed=0.0307x    frame=  323 fps=0.8 q=19.0 size=    1792kB time=00:00:12.88 bitrate=1139.8kbits/s speed=0.0307x    frame=  324 fps=0.8 q=19.0 size=    1792kB time=00:00:12.92 bitrate=1136.2kbits/s speed=0.0306x    frame=  325 fps=0.8 q=20.0 size=    1792kB time=00:00:12.96 bitrate=1132.7kbits/s speed=0.0306x    frame=  326 fps=0.8 q=19.0 size=    1792kB time=00:00:13.00 bitrate=1129.2kbits/s speed=0.0306x    frame=  327 fps=0.8 q=20.0 size=    1792kB time=00:00:13.04 bitrate=1125.8kbits/s speed=0.0305x    frame=  328 fps=0.8 q=19.0 size=    1792kB time=00:00:13.08 bitrate=1122.3kbits/s speed=0.0305x    frame=  329 fps=0.8 q=19.0 size=    1792kB time=00:00:13.12 bitrate=1118.9kbits/s speed=0.0305x    frame=  330 fps=0.8 q=19.0 size=    1792kB time=00:00:13.16 bitrate=1115.5kbits/s speed=0.0304x    frame=  331 fps=0.8 q=19.0 size=    1792kB time=00:00:13.20 bitrate=1112.1kbits/s speed=0.0304x    frame=  332 fps=0.8 q=19.0 size=    1792kB time=00:00:13.24 bitrate=1108.8kbits/s speed=0.0304x    frame=  333 fps=0.8 q=19.0 size=    1792kB time=00:00:13.28 bitrate=1105.4kbits/s speed=0.0304x    frame=  334 fps=0.8 q=19.0 size=    1792kB time=00:00:13.32 bitrate=1102.1kbits/s speed=0.0304x    frame=  335 fps=0.7 q=22.0 size=    2048kB time=00:00:13.36 bitrate=1255.8kbits/s speed=0.0296x    Error while decoding stream #0:0: Invalid data found when processing input
frame=  335 fps=0.7 q=22.0 size=    2048kB time=00:00:13.36 bitrate=1255.8kbits/s speed=0.0268x    frame=  335 fps=0.7 q=22.0 Lsize=    2062kB time=00:00:13.36 bitrate=1264.1kbits/s speed=0.0262x    
video:1874kB audio:0kB subtitle:0kB other streams:0kB global headers:0kB muxing overhead: 10.034813%
[libx264 @ 0x5555555dd680] frame I:2     Avg QP:13.52  size: 91714
[libx264 @ 0x5555555dd680] frame P:333   Avg QP:19.15  size:  5211
[libx264 @ 0x5555555dd680] mb I  I16..4: 52.3% 22.8% 24.9%
[libx264 @ 0x5555555dd680] mb P  I16..4: 16.6% 10.4%  0.6%  P16..4: 21.7%  3.6%  2.3%  0.0%  0.0%    skip:44.8%
[libx264 @ 0x5555555dd680] 8x8 transform intra:37.4% inter:16.2%
[libx264 @ 0x5555555dd680] coded y,uvDC,uvAC intra: 4.4% 51.5% 44.0% inter: 7.3% 8.9% 3.3%
[libx264 @ 0x5555555dd680] i16 v,h,dc,p: 72%  4% 24%  1%
[libx264 @ 0x5555555dd680] i8 v,h,dc,ddl,ddr,vr,hd,vl,hu: 14%  5% 73%  2%  1%  2%  1%  2%  1%
[libx264 @ 0x5555555dd680] i4 v,h,dc,ddl,ddr,vr,hd,vl,hu: 27% 19% 37%  3%  4%  3%  2%  2%  2%
[libx264 @ 0x5555555dd680] i8c dc,h,v,p: 61% 22% 11%  6%
[libx264 @ 0x5555555dd680] Weighted P-Frames: Y:0.0% UV:0.0%
[libx264 @ 0x5555555dd680] ref P L0: 32.8%  2.3% 36.2% 10.2% 12.0%  6.6%
[libx264 @ 0x5555555dd680] kb/s:1145.39
Exiting normally, received signal 2.
/home/pmorelr/apps/basilisk/src/grid/tree.h:1249:error: [Thread debugging using libthread_db enabled]
/home/pmorelr/apps/basilisk/src/grid/tree.h:1249:error: Using host libthread_db library "/lib/x86_64-linux-gnu/libthread_db.so.1".
/home/pmorelr/apps/basilisk/src/grid/tree.h:1249:error: [New Thread 0x7fffefb83700 (LWP 1660073)]
/home/pmorelr/apps/basilisk/src/grid/tree.h:1249:error: [New Thread 0x7fffe7382700 (LWP 1660074)]
/home/pmorelr/apps/basilisk/src/grid/tree.h:1249:error: [New Thread 0x7fffef382700 (LWP 1660075)]
/home/pmorelr/apps/basilisk/src/grid/tree.h:1249:error: [New Thread 0x7fffeeb81700 (LWP 1660076)]
/home/pmorelr/apps/basilisk/src/grid/tree.h:1249:error: [New Thread 0x7fffee380700 (LWP 1660077)]
/home/pmorelr/apps/basilisk/src/grid/tree.h:1249:error: [New Thread 0x7fffedb7f700 (LWP 1660078)]
/home/pmorelr/apps/basilisk/src/grid/tree.h:1249:error: [New Thread 0x7fffed37e700 (LWP 1660079)]
/home/pmorelr/apps/basilisk/src/grid/tree.h:1249:error: [New Thread 0x7fffecb7d700 (LWP 1660080)]
/home/pmorelr/apps/basilisk/src/grid/tree.h:1249:error: [New Thread 0x7fffe7fff700 (LWP 1660081)]
/home/pmorelr/apps/basilisk/src/grid/tree.h:1249:error: [New Thread 0x7fffe6b81700 (LWP 1660082)]
/home/pmorelr/apps/basilisk/src/grid/tree.h:1249:error: [New Thread 0x7fffe6380700 (LWP 1660083)]
/home/pmorelr/apps/basilisk/src/grid/tree.h:1249:error: [New Thread 0x7fffe5b7f700 (LWP 1660084)]
/home/pmorelr/apps/basilisk/src/grid/tree.h:1249:error: [New Thread 0x7fffe537e700 (LWP 1660085)]
/home/pmorelr/apps/basilisk/src/grid/tree.h:1249:error: [New Thread 0x7fffe4b7d700 (LWP 1660086)]
/home/pmorelr/apps/basilisk/src/grid/tree.h:1249:error: [New Thread 0x7fffb7fff700 (LWP 1660087)]
/home/pmorelr/apps/basilisk/src/grid/tree.h:1249:error: [New Thread 0x7fffb77fe700 (LWP 1660088)]
/home/pmorelr/apps/basilisk/src/grid/tree.h:1249:error: [New Thread 0x7fffb6ffd700 (LWP 1660089)]
/home/pmorelr/apps/basilisk/src/grid/tree.h:1249:error: [New Thread 0x7fffb67fc700 (LWP 1660090)]
/home/pmorelr/apps/basilisk/src/grid/tree.h:1249:error: [New Thread 0x7fffb5ffb700 (LWP 1660091)]
/home/pmorelr/apps/basilisk/src/grid/tree.h:1249:error: [New Thread 0x7fffb57fa700 (LWP 1660092)]
/home/pmorelr/apps/basilisk/src/grid/tree.h:1249:error: Thread 1 "boil72" received signal SIGINT, Interrupt.
